HIERARCHY
ROOT Hips
{
  OFFSET -25.4992 47.4658 0.522821
  CHANNELS 6 Xposition Yposition Zposition Zrotation Xrotation Yrotation
  JOINT Bip01_Pelvis
  {
    OFFSET 0 0 0
    CHANNELS 6 Xposition Yposition Zposition Zrotation Xrotation Yrotation
    JOINT Bip01_Spine
    {
      OFFSET 7.92815 1.03427 -0.957866
      CHANNELS 6 Xposition Yposition Zposition Zrotation Xrotation Yrotation
      JOINT Bip01_Spine1
      {
        OFFSET 14.2482 -0.00839019 0.000894789
        CHANNELS 6 Xposition Yposition Zposition Zrotation Xrotation Yrotation
        JOINT Bip01_Neck
        {
          OFFSET 16.1384 -3.98645 0.000135839
          CHANNELS 6 Xposition Yposition Zposition Zrotation Xrotation Yrotation
          JOINT Bip01_Neck1
          {
            OFFSET 9.69266 -0.00491233 0
            CHANNELS 6 Xposition Yposition Zposition Zrotation Xrotation Yrotation
            JOINT Bip01_Head
            {
              OFFSET 6.2355 0 0
              CHANNELS 6 Xposition Yposition Zposition Zrotation Xrotation Yrotation
              JOINT BN_Mouth_01
              {
                OFFSET 4.58056 2.14338 0
                CHANNELS 6 Xposition Yposition Zposition Zrotation Xrotation Yrotation
                End Site
                {
                  OFFSET 0 0 0
                }
              }
            }
          }
          JOINT Bip01_L_Clavicle
          {
            OFFSET -0.933029 -3.98291 -6.88005
            CHANNELS 6 Xposition Yposition Zposition Zrotation Xrotation Yrotation
            JOINT Bip01_L_UpperArm
            {
              OFFSET 15.6802 0 0
              CHANNELS 6 Xposition Yposition Zposition Zrotation Xrotation Yrotation
              JOINT Bip01_L_Forearm
              {
                OFFSET 15.3149 0 0
                CHANNELS 6 Xposition Yposition Zposition Zrotation Xrotation Yrotation
                JOINT Bip01_L_Hand
                {
                  OFFSET 16.178 0 0
                  CHANNELS 6 Xposition Yposition Zposition Zrotation Xrotation Yrotation
                  JOINT Bip01_L_Finger0
                  {
                    OFFSET 12.9992 0 0
                    CHANNELS 6 Xposition Yposition Zposition Zrotation Xrotation Yrotation
                    End Site
                    {
                      OFFSET 0 0 0
                    }
                  }
                }
              }
              JOINT BN__UpperArm_L_01
              {
                OFFSET 4.92586 2.56729 1.95639
                CHANNELS 6 Xposition Yposition Zposition Zrotation Xrotation Yrotation
                End Site
                {
                  OFFSET 0 0 0
                }
              }
            }
          }
          JOINT Bip01_R_Clavicle
          {
            OFFSET -1.90751 -3.34722 7.0168
            CHANNELS 6 Xposition Yposition Zposition Zrotation Xrotation Yrotation
            JOINT Bip01_R_UpperArm
            {
              OFFSET 15.6801 0 0
              CHANNELS 6 Xposition Yposition Zposition Zrotation Xrotation Yrotation
              JOINT Bip01_R_Forearm
              {
                OFFSET 15.3149 0 0
                CHANNELS 6 Xposition Yposition Zposition Zrotation Xrotation Yrotation
                JOINT Bip01_R_Hand
                {
                  OFFSET 16.1779 0 0
                  CHANNELS 6 Xposition Yposition Zposition Zrotation Xrotation Yrotation
                  JOINT Bip01_R_Finger0
                  {
                    OFFSET 12.9991 0 0
                    CHANNELS 6 Xposition Yposition Zposition Zrotation Xrotation Yrotation
                    End Site
                    {
                      OFFSET 0 0 0
                    }
                  }
                }
              }
              JOINT BN__UpperArm_R_01
              {
                OFFSET 4.92584 2.56728 -1.95638
                CHANNELS 6 Xposition Yposition Zposition Zrotation Xrotation Yrotation
                End Site
                {
                  OFFSET 0 0 0
                }
              }
            }
          }
        }
      }
      JOINT Bip01_L_Thigh
      {
        OFFSET -8.91231 -1.85462 5.82833
        CHANNELS 6 Xposition Yposition Zposition Zrotation Xrotation Yrotation
        JOINT Bip01_L_Calf
        {
          OFFSET 15.7566 0 0
          CHANNELS 6 Xposition Yposition Zposition Zrotation Xrotation Yrotation
          JOINT Bip01_L_HorseLink
          {
            OFFSET 16.2363 0 0
            CHANNELS 6 Xposition Yposition Zposition Zrotation Xrotation Yrotation
            JOINT Bip01_L_Foot
            {
              OFFSET 13.9816 0 0
              CHANNELS 6 Xposition Yposition Zposition Zrotation Xrotation Yrotation
              JOINT Bip01_L_Toe0
              {
                OFFSET 7.68594 5.03696 0
                CHANNELS 6 Xposition Yposition Zposition Zrotation Xrotation Yrotation
                End Site
                {
                  OFFSET 0 0 0
                }
              }
            }
          }
        }
      }
      JOINT Bip01_R_Thigh
      {
        OFFSET -6.80264 -1.57702 -6.62463
        CHANNELS 6 Xposition Yposition Zposition Zrotation Xrotation Yrotation
        JOINT Bip01_R_Calf
        {
          OFFSET 15.7566 0 0
          CHANNELS 6 Xposition Yposition Zposition Zrotation Xrotation Yrotation
          JOINT Bip01_R_HorseLink
          {
            OFFSET 16.2363 0 0
            CHANNELS 6 Xposition Yposition Zposition Zrotation Xrotation Yrotation
            JOINT Bip01_R_Foot
            {
              OFFSET 13.9816 0 0
              CHANNELS 6 Xposition Yposition Zposition Zrotation Xrotation Yrotation
              JOINT Bip01_R_Toe0
              {
                OFFSET 7.68597 5.03696 0
                CHANNELS 6 Xposition Yposition Zposition Zrotation Xrotation Yrotation
                End Site
                {
                  OFFSET 0 0 0
                }
              }
            }
          }
        }
      }
    }
    JOINT BN_Tail_01
    {
      OFFSET -7.9584 -2.82211 0
      CHANNELS 6 Xposition Yposition Zposition Zrotation Xrotation Yrotation
      JOINT BN_Tail_02
      {
        OFFSET 10.9082 0 0.00113176
        CHANNELS 6 Xposition Yposition Zposition Zrotation Xrotation Yrotation
        End Site
        {
          OFFSET 0 0 0
        }
      }
    }
  }
}
MOTION
Frames:	4
Frame Time:	0.0333333
-25.7935 46.4537 -6.58258e-006 90.0041 -84.0025 -178.586 4.29311e-006 9.95504e-008 2.43016e-007 -89.9985 -0.00170417 -97.0812 7.92098 1.06453 -0.985058 -4.37725 3.72863 11.0805 14.2479 -0.00834301 0.000884725 0.525324 -9.87951 4.04435 16.1383 -3.98614 -9.68577e-007 -67.4578 3.94431 4.12725 9.69267 -0.00491525 6.17372e-007 -3.17698 -2.56608 -0.326639 6.23551 -9.78784e-007 -9.50197e-007 34.3622 1.89169 1.87909 4.58057 2.14338 -3.75665e-007 -119.035 -0.0258026 179.988 -0.675358 -4.22585 -6.76345 -112.796 0.655655 -93.2862 15.6802 6.36753e-006 7.59908e-007 -33.1533 -67.2002 58.6862 15.3149 -5.40618e-006 -1.08737e-006 -24.8779 -7.80108e-006 -4.77636e-005 16.178 -1.94495e-006 -9.53186e-007 168.32 -75.4339 165.069 12.9992 -8.11212e-007 -2.15923e-006 -0.0521819 -0.0403219 11.3049 4.92587 2.56729 1.95639 14.1163 -8.48205 -6.70253 -1.67747 -3.26563 7.11258 -113.093 -7.70596 87.9332 15.6802 -8.94961e-007 -1.92837e-006 -0.840519 54.3746 -81.4866 15.3149 -2.14641e-006 4.77062e-007 -67.3094 -6.19425e-006 -1.467e-005 16.178 1.64834e-006 -3.00159e-006 162.255 80.67 -89.6421 12.9991 -2.14709e-006 2.24451e-006 9.66474 8.06092 39.3109 4.92584 2.56729 -1.95638 -165.885 -8.52248 173.302 -9.09201 -1.18781 5.75453 -93.4161 15.5873 -173.948 15.7566 -1.3209e-006 2.24764e-006 -57.6334 1.47638e-005 -9.17759e-006 16.2363 3.79712e-006 1.58852e-006 32.3726 -4.4115e-006 -1.81733e-005 13.9816 2.35908e-006 3.56687e-006 22.2637 3.85266 -9.02837 7.68593 5.03696 1.12824e-006 89.9913 -4.70256e-005 1.6978e-005 -6.66906 -2.0099 -6.61713 -131.077 -19.7336 166.19 15.7566 -1.18785e-006 -2.92931e-007 -47.6461 3.02864e-005 -2.67799e-005 16.2364 -3.99179e-006 5.08307e-006 49.3336 1.53957e-005 -4.66939e-007 13.9816 -2.59816e-006 6.14923e-006 -39.3979 -7.89484 -4.58749 7.68597 5.03696 1.62975e-006 89.9983 3.43781 5.1256e-005 -7.95841 -2.82211 3.29718e-007 -64.1574 2.38483 -174.101 10.9082 9.56763e-007 0.00113185 -9.9922 14.9569 -17.0619 
-25.7669 46.5132 0.0746019 86.1693 -84.0918 177.926 5.37901e-006 1.77532e-007 -1.35881e-006 -89.6638 -0.0367558 -97.0667 7.92094 1.05982 -0.987454 -4.75588 3.0583 11.0083 14.2465 -0.00833604 0.000885869 0.570948 -9.7665 3.72082 16.1366 -3.9857 3.59264e-005 -67.066 3.80389 4.09947 9.69075 -0.00488754 1.85399e-005 -3.39141 -2.55619 -0.530747 6.23427 1.23814e-005 1.19091e-005 34.4012 1.83186 2.10945 4.57911 2.14271 -1.16893e-005 -119.099 -0.0257873 179.989 -0.703787 -4.20043 -6.77653 -113.167 1.12274 -92.7821 15.6767 3.65331e-005 2.13401e-007 -33.2065 -65.0714 58.3021 15.31 2.58181e-005 -3.64862e-005 -25.6347 -2.81853e-005 0.000336566 16.1718 -5.44749e-005 -0.000163896 169.612 -74.7551 166.193 12.9939 0.000130738 -1.60828e-006 -0.00969754 -0.0365115 11.5924 4.92429 2.56652 1.95578 14.1168 -8.48226 -6.70249 -1.69973 -3.27432 7.09971 -113.455 -7.72503 88.2786 15.6757 -1.13881e-005 -1.02344e-006 0.270929 55.9217 -82.4287 15.3083 4.8035e-005 -3.95746e-006 -68.6429 1.5353e-006 5.34336e-005 16.1711 -5.71904e-005 -1.48742e-005 160.853 80.7013 -89.3062 12.9929 -1.39798e-005 -4.38418e-005 9.65723 7.79279 37.8186 4.92374 2.56621 -1.95554 -165.885 -8.52274 173.302 -9.07191 -1.32112 5.75766 -92.9848 15.4071 -173.884 15.7548 2.0208e-005 1.14803e-005 -57.259 -0.000153513 -1.83336e-005 16.2328 -8.31988e-005 4.5362e-006 30.5299 -0.000260138 0.000132894 13.9784 -5.95591e-005 -3.31048e-005 20.7826 4.894 -7.96601 7.68337 5.03532 -0.000132325 89.9916 0.000608109 0.000618625 -6.66257 -1.99501 -6.62425 -130.797 -18.7825 166.121 15.7523 8.7036e-005 1.25646e-005 -50.3252 1.4454e-005 -4.62147e-005 16.2318 -1.76766e-005 1.4541e-005 51.8717 -8.19876e-006 -5.93548e-005 13.9778 7.31412e-005 1.6627e-005 -39.8847 -7.33004 -4.2692 7.68321 5.03519 8.62112e-006 90.5495 3.36756 -0.0565909 -7.95813 -2.82199 7.83569e-006 -64.1511 2.37832 -173.812 10.9063 -4.4879e-005 0.00117489 -10.0533 14.5805 -15.6459 
-25.7297 46.6253 0.156009 81.7114 -84.2146 173.845 1.94616e-006 1.00435e-007 2.91597e-007 -89.3109 -0.0698433 -97.0234 7.9204 1.05503 -0.989782 -4.99179 2.30339 10.8578 14.2451 -0.0083583 0.000888054 0.449471 -9.56347 3.31581 16.135 -3.98544 4.419e-005 -66.5554 3.62592 4.07492 9.68994 -0.00491172 -3.79984e-006 -3.64235 -2.52189 -0.804612 6.23334 -1.69094e-007 -7.39916e-006 34.377 1.78755 2.3578 4.57822 2.14228 -1.30575e-006 -119.163 -0.026413 179.99 -0.738786 -4.16878 -6.78965 -113.635 1.88464 -92.1634 15.6752 -4.03886e-006 -2.96487e-007 -32.4731 -62.5507 58.4072 15.3088 3.4314e-005 -4.90116e-006 -27.0275 -8.2559e-005 -2.42969e-005 16.1715 3.93632e-005 6.52514e-006 171.327 -74.062 167.524 12.9936 -9.75984e-006 2.45028e-005 -0.0704354 -0.00771528 12.4731 4.92392 2.56627 1.9556 14.1164 -8.4821 -6.70245 -1.72834 -3.2864 7.08849 -113.924 -7.74236 88.6594 15.6741 5.99281e-005 -9.83374e-005 1.29304 57.7668 -83.3016 15.3075 8.00784e-005 -6.60046e-006 -69.4571 0.000244382 0.00073561 16.1702 -8.5171e-005 -0.000207696 159.108 80.7357 -89.8487 12.9923 -7.75571e-005 -9.22225e-005 9.64234 7.52378 36.3259 4.92349 2.56606 -1.95534 -165.885 -8.52276 173.303 -9.04668 -1.44522 5.76812 -93.1627 15.1465 -173.862 15.7521 2.19294e-005 2.03705e-006 -56.63 -1.6796e-005 -0.000106717 16.2297 3.61873e-005 4.47528e-005 27.917 -0.000167558 -8.57923e-005 13.9759 4.91973e-005 2.18934e-005 17.0575 6.41146 -5.74535 7.68182 5.03425 1.92729e-006 89.9914 -0.000101264 0.000134314 -6.66895 -1.95294 -6.62657 -130.135 -17.829 166.329 15.7508 2.66861e-006 4.00189e-005 -52.2605 0.000115032 -9.68075e-005 16.2304 -1.62005e-005 2.93184e-005 54.126 9.84327e-007 -0.000447759 13.9756 1.46088e-006 0.000181646 -40.158 -6.61753 -3.88375 7.68213 5.0344 0.000153895 91.1009 3.29595 -0.113383 -7.95734 -2.82174 2.01877e-007 -64.1435 2.37209 -173.565 10.9053 -8.34269e-009 0.00115022 -9.74095 13.7952 -13.6288 
-25.6831 46.7833 0.242877 76.7104 -84.3572 169.251 5.6813e-006 9.96199e-011 4.38828e-009 -88.9296 -0.108185 -96.9478 7.92274 1.05001 -0.985056 -5.099 1.48002 10.6326 14.2481 -0.00836699 0.000891127 0.181836 -9.27598 2.84653 16.1383 -3.98629 6.88813e-005 -65.9369 3.41477 4.0541 9.69265 -0.00491754 4.15688e-007 -3.92913 -2.45973 -1.13791 6.23549 -1.52095e-006 -1.30072e-006 34.2983 1.72666 2.68857 4.58056 2.14337 1.48381e-007 -119.227 -0.0266266 179.991 -0.780432 -4.13171 -6.81208 -114.213 2.9071 -91.4474 15.6801 1.35661e-006 1.45331e-006 -31.2149 -59.7629 58.7565 15.3148 -3.85378e-006 9.91746e-008 -28.8187 -1.83884e-005 9.11703e-006 16.1779 -4.41122e-006 3.35534e-007 173.257 -73.3738 168.97 12.9992 -3.10646e-007 -3.53857e-006 -0.130861 0.0198857 13.3543 4.92585 2.56729 1.95639 14.1163 -8.48209 -6.70255 -1.76578 -3.30074 7.07345 -114.487 -7.76869 89.0759 15.6801 -1.76214e-006 -6.57525e-008 2.31952 59.8628 -84.1869 15.3148 -5.50079e-006 -7.26564e-007 -69.7979 -1.593e-005 -1.17064e-005 16.1779 5.64117e-006 -1.55102e-006 157.015 80.7892 -91.0739 12.9991 -4.82239e-006 5.09895e-006 9.20141 6.87233 34.5834 4.92583 2.56727 -1.95638 -165.885 -8.52268 173.302 -9.01948 -1.56068 5.77928 -93.838 14.7892 -173.852 15.7566 -1.40966e-006 3.55071e-006 -55.8449 1.09857e-005 -1.45765e-005 16.2363 3.77423e-006 3.05016e-006 24.8672 -9.84539e-006 -2.35337e-005 13.9816 2.40976e-006 3.75112e-006 11.4674 7.93288 -2.53826 7.68593 5.03694 -5.14502e-007 89.9917 -1.80917e-005 1.0122e-007 -6.68884 -1.88732 -6.63301 -129.172 -16.8574 166.746 15.7566 -5.45344e-006 1.38776e-006 -53.5691 9.98137e-006 -9.98685e-006 16.2363 -1.11348e-006 4.06939e-006 56.1459 1.78736e-005 -5.84407e-006 13.9816 -6.40515e-006 7.72961e-006 -40.2509 -5.78692 -3.45713 7.68595 5.03694 2.19722e-006 91.6515 3.22545 -0.167743 -7.9584 -2.82211 2.14614e-007 -64.1344 2.36664 -173.361 10.9082 -1.34405e-006 0.00113254 -9.40162 13.0216 -11.6148 
